<?xml version="1.0" encoding="utf-8" ?>
<svg xmlns="http://www.w3.org/2000/svg" xmlns:xlink="http://www.w3.org/1999/xlink" width="1024" height="1024">
	<path fill="#EDF6F9" transform="scale(2 2)" d="M246.971 64.7506C359.265 59.9383 453.163 153.994 446.879 265.997C441.317 365.146 363.392 440.937 265.125 446.935C255.058 446.952 245.06 446.906 235.032 445.88C166.085 438.824 104.913 392.476 79.1573 328.214C34.7349 217.378 100.421 91.6279 220.031 67.9942C229.836 66.0568 237.442 65.8976 246.971 64.7506Z"/>
	<path fill="#E08600" transform="scale(2 2)" d="M218.96 368.766C223.776 368.74 228.688 369.646 233.54 369.679C254.132 369.821 273.034 369.628 293.504 368.766C287.434 377.58 268.035 387.144 256.922 389.027C249.616 390.266 225.822 374.433 218.96 368.766Z"/>
	<path fill="#E08600" transform="scale(2 2)" d="M207.985 184.115C207.966 170.795 207.035 159.251 213.44 146.99C231.653 112.124 281.449 113.149 299.384 147.756C305.785 160.108 305.032 170.792 305.001 184.115C298.259 182.753 291.8 180.902 284.937 179.863C262.71 177.635 249.142 178.795 227.727 179.863C221.235 181.744 214.503 182.033 207.985 184.115Z"/>
	<path fill="#EDF6F9" transform="scale(2 2)" d="M227.727 179.863C222.42 146.704 256.144 129.378 276.427 149.828C285.443 158.917 284.949 168.052 284.937 179.863C262.71 177.635 249.142 178.795 227.727 179.863Z"/>
	<path fill="#E08600" transform="scale(2 2)" d="M227.727 179.863C249.142 178.795 262.71 177.635 284.937 179.863C291.8 180.902 298.259 182.753 305.001 184.115C319.057 190.837 321.199 198.711 323.173 212.946C325.862 232.337 324.613 270.722 316.24 288.98L315.813 289.238C310.244 287.942 304.085 287.625 298.375 287.118C266.842 284.316 234.496 285.25 203.038 288.366C200.31 288.636 197.526 289.123 194.797 289.238C187.59 262.49 184.663 239.661 189.42 212.092C191.793 198.339 193.455 189.819 207.985 184.115C214.503 182.033 221.235 181.744 227.727 179.863Z"/>
	<path fill="#EDF2F9" transform="scale(2 2)" d="M254.092 214.802C269.071 212.952 277.693 230.048 263.763 242.324C263.761 248.662 266.834 262.777 259.313 263.259C249.036 263.407 248.357 264.288 248.379 253.527L248.411 242.324C236.306 233.013 239.618 217.997 254.092 214.802Z"/>
	<path fill="#EDF6F9" transform="scale(2 2)" d="M194.797 289.238C197.526 289.123 200.31 288.636 203.038 288.366C234.496 285.25 266.842 284.316 298.375 287.118C304.085 287.625 310.244 287.942 315.813 289.238C335.916 290.381 383.973 298.941 397.455 314.184C405.908 323.741 403.633 335.797 394.372 343.858C376.814 359.139 332.441 366.053 307.571 367.959C303.249 368.291 297.745 369.589 293.504 368.766C273.034 369.628 254.132 369.821 233.54 369.679C228.688 369.646 223.776 368.74 218.96 368.766C190.296 370.065 112.496 361.092 109.071 330.705C105.651 300.37 174.814 291.379 194.797 289.238Z"/>
	<path fill="#E08600" transform="scale(2 2)" d="M145.037 314.637C148.759 313.715 151.04 314.968 153.604 317.747C152.501 318.779 151.745 319.762 151.01 321.076C148.378 319.599 142.853 317.205 141.455 321.243C141.98 324.26 149.537 325.394 152.349 328.138C157.796 333.456 152.743 340.129 145.037 339.98C141.158 340.167 138.539 339.402 135.34 337.234C135.968 335.813 136.809 334.497 137.602 333.163C140.175 334.381 148.005 338.132 148.835 332.961C147.76 330.176 140.537 329.219 137.802 326.418C133.257 321.765 136.644 314.268 145.037 314.637Z"/>
	<path fill="#E08600" transform="scale(2 2)" d="M190.844 314.637C195.219 313.57 198.645 315.578 201.752 318.572C200.817 319.647 199.994 320.804 199.154 321.952C195.28 319.989 190.928 317.779 187.001 321.051C178.635 328.021 190.333 340.969 197.948 332.833C198.334 332.42 198.383 332.334 198.925 332.098L199.022 332.42L199.154 332.265C200.416 333.199 201.603 334.153 202.759 335.216C195.61 344.019 179.839 341.121 178.501 328.984C177.617 320.963 182.944 315.198 190.844 314.637Z"/>
	<path fill="#E08600" transform="scale(2 2)" d="M206.797 314.637L211.242 314.637C211.247 318.944 210.653 326.945 211.439 330.812C212.686 336.947 220.94 336.566 222.135 330.464C222.832 326.91 222.294 318.657 222.271 314.637C224.092 314.674 225.906 314.67 227.727 314.637L227.727 321.076C227.762 327.881 229.187 337.417 220.752 339.819C214.24 341.674 207.485 339.56 206.047 332.45C205.667 330.575 205.166 315.723 205.86 314.711L206.797 314.637Z"/>
	<path fill="#E08600" transform="scale(2 2)" d="M341.732 314.637C346.604 314.132 350.073 314.92 354.046 317.747C353.116 319.226 351.89 320.595 350.789 321.952C348.625 320.538 340.859 316.668 340.254 321.796C341.517 324.569 349.832 325.017 352.763 327.892C357.657 332.693 352.82 339.991 346.121 339.98C341.361 340.618 337.907 340.145 333.966 337.234C334.746 335.467 335.766 333.889 336.804 332.265C338.989 334.843 348.841 338.01 348.648 332.29C346.67 328.19 336.496 330.308 334.861 323.941C333.573 318.923 337.123 315.753 341.732 314.637Z"/>
	<path fill="#E08600" transform="scale(2 2)" d="M365.364 314.637C369.311 313.815 372.682 315.518 375.822 317.747C374.958 319.262 373.854 320.59 372.773 321.952C369.814 320.163 366.66 318.23 363.224 320.18C357.931 323.184 372.52 325.876 374.491 328.136C379.408 333.776 373.67 341.07 365.364 339.98C361.229 340.329 358.937 339.239 355.443 337.234C356.138 335.578 356.748 334.351 358.156 333.163C361.506 334.793 366.703 337.358 369.841 334.032C372.882 330.808 360.147 328.144 358.314 326.703C352.326 321.993 358.04 315.076 365.364 314.637Z"/>
	<path fill="#E08600" transform="scale(2 2)" d="M158.144 314.637L176.666 314.637L176.666 319.308L163.593 319.308L163.593 324.823C167.042 324.357 171.02 324.803 174.527 324.823L174.527 329.029L163.593 329.029C163.034 330.143 163.561 333.817 163.593 335.216L176.666 335.216C176.588 336.808 176.626 338.388 176.666 339.98C170.508 339.823 164.307 339.976 158.144 339.98L158.144 314.637Z"/>
	<path fill="#E08600" transform="scale(2 2)" d="M257.762 314.637L276.246 314.637C276.166 316.195 276.212 317.749 276.246 319.308L263.763 319.308C263.481 321.134 263.546 322.994 263.763 324.823L275.011 324.823L275.011 329.759L265.125 329.759C262.759 329.718 263.657 333.712 263.763 335.216L276.246 335.216L276.246 339.98L257.762 339.98L257.762 314.637Z"/>
	<path fill="#E08600" transform="scale(2 2)" d="M316.929 314.637C318.858 314.55 320.778 314.592 322.708 314.637C324.368 319.636 331.357 335.893 333.966 339.98C331.864 340.087 329.747 340.008 327.644 339.98C327.03 338.447 326.367 335.033 324.529 334.717L315.016 334.717C314.304 336.452 313.672 338.225 313.013 339.98L307.499 339.98C309.914 330.991 314.836 322.663 316.929 314.637Z"/>
	<path fill="#EDF6F9" transform="scale(2 2)" d="M320.199 321.076C320.89 321.986 322.913 327.916 323.914 329.759L320.199 329.759L316.929 329.759C317.704 326.783 319.033 323.916 320.199 321.076Z"/>
	<path fill="#E08600" transform="scale(2 2)" d="M287.759 314.637C292.485 314.686 300.305 313.556 304.38 315.815C311.713 319.88 308.768 330.357 301.406 332.265C298.729 332.67 296.193 332.488 293.504 332.265L293.504 339.98L287.759 339.98L287.759 314.637Z"/>
	<path fill="#EDF6F9" transform="scale(2 2)" d="M293.504 319.308C298.246 319.381 305.697 320.087 301.406 326.901C299.062 327.748 295.992 327.452 293.504 327.479L293.504 319.308Z"/>
	<path fill="#E08600" transform="scale(2 2)" d="M232.704 314.637C239.701 314.624 254.041 312.883 253.408 323.632C253.207 327.039 250.793 329.438 248.411 331.583C249.789 334.649 252.185 337.228 254.092 339.98L251.531 339.98L247.668 339.98C245.764 337.454 244.247 334.674 242.174 332.265C240.873 332.18 239.551 332.246 238.247 332.265L238.247 339.98C236.389 340.101 234.563 340.052 232.704 339.98L232.704 314.637Z"/>
	<path fill="#EDF6F9" transform="scale(2 2)" d="M238.247 319.308C241.764 319.546 250.976 319.731 246.971 325.806C244.534 327.316 241.025 326.9 238.247 326.901C238.151 324.375 238.224 321.836 238.247 319.308Z"/>
</svg>
