<?xml version="1.0" encoding="utf-8" ?>
<svg xmlns="http://www.w3.org/2000/svg" xmlns:xlink="http://www.w3.org/1999/xlink" width="1365" height="1024">
	<path fill="#5E62DA" d="M0 0L1363.83 0C1366 3.79054 1365 11.8007 1365 16.2249L1365.01 810.316L1365 969.913C1365 977.573 1366.16 1017.87 1364.59 1022.54C1364.42 1023.05 1364.09 1023.55 1363.83 1024L0 1024L0 0Z"/>
	<path fill="#FF0054" d="M1022.86 228.464C1023.19 228.473 1023.52 228.473 1023.85 228.491C1025.73 228.589 1026.87 229.417 1028.07 230.834C1030.75 234.02 1032.74 239.931 1032.32 244.092C1035.18 244.581 1038.28 245.025 1040.99 246.074C1042.92 246.817 1045.68 248.436 1046.36 250.549C1046.86 252.094 1046.51 253.616 1045.59 254.93C1042.69 259.102 1036.21 259.98 1031.6 261.185C1032.05 262.815 1031.04 265.488 1030.51 267.068C1029.3 270.659 1027.7 273.047 1024.25 274.682C1023.37 274.683 1022.41 274.593 1021.59 274.23C1017.69 272.493 1015.8 264.762 1014.44 260.979C1011.88 260.148 1009.12 259.405 1006.67 258.277C1004.07 257.077 1002.24 255.224 1001.21 252.563C1001.34 250.845 1001.3 250.194 1002.39 248.777C1004.95 245.436 1010.65 244.42 1014.55 243.768C1016.43 237.578 1017.55 232.6 1022.86 228.464Z"/>
	<path fill="#FF0054" d="M330.707 812.545C335.224 818.572 337.397 826.614 341.22 833.182C347.685 836.222 354.664 838.507 361.352 841.032C354.68 844.732 347.588 846.613 340.59 849.46C337.695 856.588 334.902 863.572 330.99 870.218C326.436 865.262 323.295 855.091 320.714 848.834Q315.544 847.602 310.565 845.741Q305.586 843.881 300.875 841.42C307.518 838.01 314.855 835.967 321.7 832.941L330.707 812.545Z"/>
	<path fill="#FF5400" d="M994.145 798.098C999.293 797.789 1003.75 797.797 1008.58 799.825C1014.55 802.336 1019.17 807.368 1021.5 813.386Q1021.72 813.947 1021.92 814.518Q1022.11 815.089 1022.27 815.67Q1022.44 816.25 1022.58 816.837Q1022.71 817.425 1022.82 818.018Q1022.93 818.612 1023.01 819.21Q1023.08 819.808 1023.13 820.41Q1023.18 821.011 1023.2 821.614Q1023.22 822.217 1023.21 822.82Q1023.2 823.423 1023.16 824.025Q1023.12 824.627 1023.05 825.226Q1022.98 825.825 1022.88 826.42Q1022.78 827.015 1022.65 827.604Q1022.52 828.194 1022.36 828.776Q1022.2 829.358 1022.02 829.932Q1021.83 830.506 1021.62 831.069Q1021.4 831.633 1021.16 832.186C1017.92 839.391 1012.09 843.059 1004.95 845.762C999.64 846.425 994.651 845.979 989.795 843.636Q989.22 843.36 988.66 843.055Q988.101 842.75 987.557 842.418Q987.013 842.085 986.486 841.726Q985.96 841.367 985.452 840.981Q984.944 840.596 984.456 840.185Q983.969 839.775 983.502 839.34Q983.036 838.906 982.592 838.448Q982.148 837.991 981.727 837.511Q981.307 837.032 980.911 836.532Q980.515 836.033 980.145 835.514Q979.775 834.995 979.431 834.458Q979.088 833.921 978.772 833.367Q978.455 832.813 978.168 832.245Q977.88 831.676 977.621 831.093Q977.362 830.51 977.132 829.916Q976.903 829.321 976.704 828.715C974.778 822.734 975.234 815.939 978.108 810.337C981.574 803.58 987.163 800.381 994.145 798.098Z"/>
	<path fill="#FF5400" d="M329.001 256.194C334.303 255.863 339.271 256.506 343.984 259.066C349.746 262.194 353.915 267.754 355.704 274.024Q355.88 274.618 356.025 275.22Q356.171 275.823 356.286 276.432Q356.4 277.041 356.484 277.655Q356.568 278.269 356.62 278.886Q356.673 279.503 356.694 280.123Q356.715 280.742 356.705 281.362Q356.695 281.981 356.654 282.599Q356.612 283.218 356.539 283.833Q356.466 284.448 356.363 285.059Q356.259 285.67 356.124 286.275Q355.989 286.88 355.824 287.477Q355.659 288.074 355.464 288.662Q355.269 289.25 355.044 289.828Q354.819 290.405 354.565 290.971Q354.312 291.536 354.03 292.088Q353.748 292.639 353.438 293.176C349.276 300.305 343.108 303.468 335.365 305.411C328.674 305.46 322.97 304.91 317.275 301.105Q316.778 300.769 316.299 300.408Q315.819 300.048 315.357 299.664Q314.896 299.281 314.454 298.875Q314.012 298.47 313.59 298.043Q313.169 297.616 312.769 297.169Q312.368 296.722 311.991 296.256Q311.613 295.79 311.258 295.305Q310.904 294.821 310.574 294.32Q310.244 293.819 309.938 293.303Q309.633 292.786 309.353 292.255Q309.074 291.725 308.821 291.181Q308.568 290.637 308.341 290.081Q308.115 289.525 307.917 288.959Q307.718 288.393 307.547 287.817Q307.377 287.242 307.235 286.659Q307.092 286.076 306.979 285.487Q306.865 284.891 306.781 284.29Q306.697 283.689 306.643 283.085Q306.589 282.48 306.566 281.874Q306.543 281.267 306.55 280.66Q306.558 280.054 306.595 279.448Q306.633 278.842 306.701 278.239Q306.77 277.636 306.868 277.037Q306.966 276.439 307.095 275.845Q307.223 275.252 307.381 274.666Q307.539 274.081 307.727 273.503Q307.914 272.926 308.13 272.359Q308.347 271.792 308.591 271.237Q308.835 270.681 309.107 270.139Q309.379 269.596 309.678 269.068Q309.977 268.54 310.302 268.028Q310.628 267.515 310.978 267.02C315.322 260.837 321.707 257.525 329.001 256.194Z"/>
	<path fill="#FF5400" d="M251.183 563.904L355.418 563.842C371.635 563.816 391.899 562.638 407.725 563.91C409.9 564.085 412.148 564.525 413.794 566.064C415.133 567.317 415.779 569.001 415.708 570.824C415.607 573.422 414.336 575.742 412.361 577.397C410.678 578.807 408.798 579.114 406.655 579.262C401.438 579.624 396.045 579.212 390.81 579.182L360.335 579.211L251.267 579.51Q251.426 571.706 251.183 563.904Z"/>
	<path fill="#FF5400" d="M679.684 292.712C681.387 292.52 683.087 292.381 684.8 292.522C687.579 292.749 691.967 292.926 693.747 295.376C695.983 298.454 693.205 303.753 693.079 307.265C693.01 309.211 693.723 310.013 694.887 311.363C700.528 312.132 702.995 304.46 708.208 304.323C710.783 304.255 713.084 305.409 714.935 307.144C717.782 309.812 719.972 313.986 720.069 317.938C720.215 323.864 710.566 325.918 707.051 329.714C705.827 335.687 719.017 336.06 721.278 341.531C722.078 343.465 721.21 345.945 720.344 347.703C718.653 351.137 714.674 356.32 710.828 357.271C707.217 358.163 702.781 353.941 699.823 352.255C698.392 351.44 697.002 351.086 695.395 351.575C691.685 356.076 696.118 362.632 694.505 367.807C693.361 371.479 690.575 373.139 687.403 374.839C684.521 375.17 681.862 375.301 679.089 374.199C669.231 370.28 675.921 358.736 673.02 351.905C669.028 349.474 662.254 356.288 657.291 356.445C654.695 356.527 652.437 355.462 650.639 353.63C648.014 350.956 646.529 347.916 646.678 344.107C646.956 336.967 656.225 336.254 660.425 332.181C660.899 327.349 648.64 324.65 647.07 318.49C646.514 316.309 647.337 314.073 648.515 312.249C650.404 309.326 653.56 305.649 657.141 305.068C662.014 304.279 665.176 309.075 668.724 311.453C670.16 312.416 670.843 312.453 672.47 312.059C676.585 308.121 673.202 302.938 674.488 298.114C675.274 295.168 677.19 294.118 679.684 292.712Z"/>
	<path fill="#FF5400" d="M542.172 297.99C554.034 298.579 549.145 311.054 556.827 314.281C558.516 314.991 559.292 314.819 560.97 314.248C563.421 312.075 564.395 308.701 565.694 305.778C566.869 303.134 568.243 299.836 571.259 298.884C574.108 297.985 576.871 299.415 579.283 300.805C582.622 302.73 585.765 305.124 586.698 309.077C588.073 314.908 582.318 318.105 580.028 322.682C579.377 323.984 579.371 325.358 579.87 326.716C581.639 331.526 591.235 328.146 595.262 330.252C597.304 331.32 598.28 333.038 598.901 335.191C599.791 338.276 600.486 342.832 598.753 345.668C595.272 351.364 585.261 348.039 579.896 349.422C578.402 349.808 578.295 350.09 577.535 351.328C578.03 355.901 582.503 359.694 583.817 364.204C584.429 366.308 584.389 368.433 583.208 370.334C580.85 374.133 575.836 375.285 571.793 376.224C563.036 373.921 564.78 364.11 557.908 361.577C551.6 362.93 552.216 373.058 545.815 375.838C543.435 376.872 540.17 376.795 537.779 375.836C535.227 374.812 532.185 371.865 531.116 369.353C528.242 362.596 535.82 357.424 538.074 351.794C536.266 346.217 522.951 351.975 517.817 347.319C515.574 345.285 514.413 342.229 514.416 339.23C514.42 336.438 515.496 333.219 517.553 331.26C520.936 328.039 526.993 328.968 531.319 328.852C533.788 328.786 535.007 328.464 536.707 326.669C538.411 321.06 532.837 317.563 530.741 312.853C529.872 310.901 529.568 308.709 530.457 306.702C532.209 302.747 538.278 299.481 542.172 297.99Z"/>
	<path fill="#FF5400" d="M792.076 298.615C794.429 298.476 796.628 298.4 798.747 299.602C802.133 301.522 802.669 305.513 803.666 308.909C804.6 312.089 805.327 314.074 808.366 315.721C814.266 315.161 816.443 302.771 822.673 299.966C824.932 298.949 827.341 299.253 829.569 300.193C832.694 301.513 837.536 304.767 838.723 308.065C840.836 313.937 832.94 318.356 830.758 322.958C830.041 324.468 830.196 325.586 830.82 327.095C832.675 331.576 842.279 326.893 846.646 328.99C848.917 330.081 850.248 332.949 850.98 335.217Q851.156 335.751 851.277 336.299Q851.398 336.848 851.462 337.406Q851.526 337.964 851.534 338.526Q851.54 339.088 851.49 339.648Q851.44 340.207 851.333 340.759Q851.225 341.31 851.062 341.848Q850.9 342.386 850.683 342.904Q850.466 343.423 850.197 343.916C847.79 348.412 844.341 349.585 839.806 351.058C837.609 350.429 835.07 349.355 832.821 349.116C831.072 348.929 830.169 349.015 828.896 350.154C829.858 353.964 833.853 356.913 835.768 360.338C837.004 362.548 837.659 365.086 836.835 367.563C835.528 371.489 831.426 373.637 827.925 375.266C825.656 375.584 822.973 376.084 820.789 375.196C815.822 373.176 815.046 367.834 812.827 363.595C811.915 361.853 810.807 361.198 808.989 360.594C804.058 361.906 804.206 370.736 800.536 374.401C799.024 375.911 797.176 376.45 795.068 376.373C791.042 376.226 786.829 374.275 784.088 371.324C775.93 362.537 788.854 358.065 789.391 350.106C786.685 346.633 778.026 350.426 773.779 349.655C771.471 349.236 769.682 348.06 768.445 346.069C766.537 343 764.5 337.75 765.693 334.192C768.862 324.745 783.528 330.899 789.636 327.733L790.097 326.183C789.008 322.332 785.09 318.971 783.052 315.421C781.706 313.078 781.038 310.394 781.891 307.76C783.352 303.247 788.16 300.688 792.076 298.615Z"/>
	<path fill="#FF5400" d="M473.062 563.534C492.42 562.878 511.98 563.474 531.355 563.477L654.479 563.686L707.493 563.671C715.15 563.642 732.362 562.211 738.604 564.145C740.309 564.673 741.636 565.682 742.437 567.295C743.482 569.403 743.661 572.967 742.845 575.173C742.029 577.377 740.225 578.227 738.247 579.242L550.832 579.353C540.173 579.35 477.34 580.45 471.999 578.441C469.956 577.673 468.166 576.4 467.307 574.332C466.432 572.228 466.835 568.969 467.813 566.95C468.869 564.772 470.912 564.234 473.062 563.534Z"/>
	<path fill="#FF5400" d="M894.672 433.699C900.022 427.515 905.298 421.354 911.381 415.872C935.895 393.777 968.881 379.251 1001.8 376.88C1044.13 373.831 1084.45 387.663 1116.39 415.45C1146.65 441.776 1166.92 481.536 1169.55 521.669C1172.13 561.018 1159.34 603.671 1133.03 633.475C1109.63 659.98 1077.55 679.81 1042.25 684.879C1039.67 686.575 1033.54 687.136 1030.45 687.505C991.076 692.213 948.856 678.205 918.158 653.781Q916.635 652.582 915.142 651.345Q913.65 650.108 912.188 648.834Q910.727 647.561 909.298 646.251Q907.869 644.941 906.474 643.595Q905.078 642.25 903.716 640.87Q902.355 639.49 901.028 638.077Q899.701 636.663 898.41 635.217Q897.12 633.771 895.865 632.293Q894.611 630.815 893.394 629.305Q892.177 627.796 890.998 626.257Q889.82 624.718 888.68 623.15Q887.54 621.582 886.439 619.986Q885.339 618.39 884.279 616.767Q883.219 615.144 882.2 613.495Q881.181 611.846 880.203 610.171Q879.226 608.497 878.29 606.799Q877.355 605.101 876.462 603.38Q875.57 601.659 874.72 599.917Q873.871 598.174 873.066 596.41Q872.26 594.647 871.499 592.864Q870.738 591.081 870.022 589.279Q869.306 587.477 868.635 585.659Q867.964 583.84 867.339 582.004Q866.714 580.169 866.135 578.319Q865.555 576.469 865.023 574.605Q864.49 572.741 864.004 570.864Q863.518 568.987 863.08 567.098Q862.641 565.21 862.25 563.311Q861.858 561.412 861.515 559.504Q861.171 557.596 860.875 555.68Q860.579 553.764 860.331 551.841Q860.084 549.918 859.884 547.99C855.582 509.402 867.779 465.248 892.048 434.993C886.504 435.019 852.332 435.405 850.435 434.809C849.994 434.67 849.732 434.208 849.38 433.907C864.282 432.671 879.702 433.98 894.672 433.699Z"/>
	<path fill="#9E0059" d="M992.091 406.529C1026.82 400.66 1061.83 410.318 1090.26 430.454C1117.83 449.983 1135.56 479.62 1141.14 512.848Q1141.4 514.403 1141.63 515.964Q1141.85 517.525 1142.04 519.092Q1142.23 520.658 1142.38 522.228Q1142.52 523.799 1142.63 525.372Q1142.74 526.946 1142.81 528.522Q1142.88 530.097 1142.91 531.674Q1142.94 533.251 1142.93 534.829Q1142.93 536.406 1142.88 537.983Q1142.83 539.559 1142.75 541.134Q1142.66 542.709 1142.53 544.281Q1142.41 545.854 1142.24 547.422Q1142.08 548.991 1141.88 550.555Q1141.67 552.12 1141.43 553.678Q1141.19 555.237 1140.91 556.789Q1140.63 558.341 1140.31 559.886Q1139.99 561.431 1139.64 562.968Q1139.28 564.504 1138.89 566.031Q1138.49 567.558 1138.06 569.075Q1137.63 570.592 1137.16 572.098Q1136.69 573.604 1136.18 575.097Q1135.67 576.591 1135.13 578.072Q1134.59 579.552 1134.01 581.019Q1133.43 582.486 1132.81 583.938Q1132.19 585.389 1131.54 586.826Q1130.89 588.262 1130.2 589.681Q1129.52 591.101 1128.79 592.503Q1128.07 593.905 1127.31 595.289Q1126.56 596.673 1125.77 598.037Q1124.98 599.402 1124.15 600.747Q1123.33 602.091 1122.47 603.415Q1121.61 604.739 1120.72 606.041Q1119.83 607.343 1118.91 608.623Q1118.03 609.852 1117.12 611.059Q1116.21 612.265 1115.28 613.45Q1114.34 614.634 1113.37 615.796Q1112.41 616.957 1111.41 618.094Q1110.42 619.232 1109.4 620.345Q1108.37 621.458 1107.33 622.545Q1106.28 623.633 1105.2 624.695Q1104.13 625.757 1103.03 626.793Q1101.93 627.828 1100.8 628.837Q1099.68 629.845 1098.53 630.826Q1097.38 631.807 1096.21 632.76Q1095.04 633.712 1093.84 634.636Q1092.65 635.56 1091.43 636.455Q1090.21 637.349 1088.97 638.214Q1087.73 639.078 1086.47 639.913Q1085.21 640.747 1083.94 641.551Q1082.66 642.354 1081.36 643.126Q1080.06 643.898 1078.74 644.639Q1077.43 645.379 1076.09 646.087Q1074.76 646.795 1073.41 647.471Q1072.05 648.146 1070.69 648.788Q1069.32 649.431 1067.94 650.04Q1066.56 650.649 1065.16 651.224Q1063.76 651.799 1062.35 652.34Q1060.94 652.881 1059.52 653.388Q1058.09 653.895 1056.66 654.366Q1055.22 654.838 1053.78 655.275Q1052.33 655.712 1050.88 656.114Q1049.42 656.515 1047.95 656.881Q1046.49 657.247 1045.02 657.578Q1043.54 657.908 1042.06 658.202Q1040.58 658.497 1039.09 658.755C1016.95 662.409 991.352 660.579 970.344 652.452C983.533 651.345 996.25 652.356 1009.48 650.136Q1010.99 649.892 1012.49 649.612Q1014 649.331 1015.49 649.014Q1016.99 648.696 1018.47 648.342Q1019.96 647.988 1021.44 647.597Q1022.92 647.207 1024.39 646.78Q1025.86 646.353 1027.31 645.89Q1028.77 645.427 1030.22 644.929Q1031.66 644.431 1033.09 643.897Q1034.53 643.363 1035.95 642.794Q1037.37 642.225 1038.77 641.621Q1040.18 641.018 1041.57 640.38Q1042.96 639.742 1044.33 639.07Q1045.7 638.398 1047.06 637.692Q1048.42 636.987 1049.75 636.248Q1051.09 635.509 1052.41 634.738Q1053.73 633.967 1055.04 633.163Q1056.34 632.359 1057.62 631.524Q1058.9 630.689 1060.16 629.822Q1061.42 628.956 1062.66 628.058Q1063.89 627.161 1065.11 626.234Q1066.33 625.306 1067.52 624.349Q1068.71 623.392 1069.88 622.406Q1071.05 621.42 1072.19 620.405Q1073.34 619.391 1074.46 618.348Q1075.58 617.306 1076.67 616.237Q1077.76 615.167 1078.83 614.071Q1079.89 612.975 1080.93 611.853Q1081.97 610.731 1082.98 609.584Q1084 608.436 1084.98 607.265Q1085.96 606.093 1086.91 604.898Q1087.87 603.702 1088.79 602.484Q1089.72 601.265 1090.61 600.024C1109.2 573.704 1114.7 540.802 1109.22 509.334C1101.16 463.061 1067.49 433.275 1024.82 418.163C1017.82 415.686 997.163 410.282 992.421 406.789C992.309 406.706 992.201 406.616 992.091 406.529Z"/>
	<path fill="#FF0054" d="M970.344 652.452C958.14 649.266 945.547 640.771 935.464 633.432C910.565 615.309 892.62 584.909 887.852 554.559Q887.604 552.961 887.396 551.357Q887.188 549.753 887.019 548.145Q886.85 546.536 886.72 544.924Q886.591 543.312 886.501 541.697Q886.411 540.082 886.361 538.465Q886.311 536.849 886.301 535.232Q886.29 533.614 886.32 531.997Q886.349 530.38 886.418 528.764Q886.487 527.148 886.595 525.535Q886.704 523.921 886.852 522.311Q887 520.7 887.188 519.094Q887.376 517.487 887.603 515.886Q887.83 514.284 888.096 512.689Q888.362 511.094 888.668 509.506Q888.973 507.917 889.317 506.337Q889.661 504.757 890.044 503.186Q890.427 501.614 890.849 500.053Q891.27 498.491 891.729 496.941Q892.189 495.39 892.686 493.851Q893.184 492.312 893.719 490.786Q894.254 489.26 894.826 487.747Q895.399 486.235 896.008 484.737Q896.618 483.238 897.263 481.756Q897.909 480.273 898.591 478.807Q899.274 477.34 899.992 475.891Q900.709 474.442 901.463 473.011Q902.216 471.58 903.004 470.167Q903.792 468.755 904.615 467.363Q905.437 465.97 906.294 464.599Q907.15 463.227 908.04 461.877Q908.93 460.526 909.853 459.198Q910.776 457.87 911.731 456.565C930.743 430.688 960.105 411.462 992.091 406.529C992.201 406.616 992.309 406.706 992.421 406.789C997.163 410.282 1017.82 415.686 1024.82 418.163C1067.49 433.275 1101.16 463.061 1109.22 509.334C1114.7 540.802 1109.2 573.704 1090.61 600.024Q1089.72 601.265 1088.79 602.483Q1087.87 603.702 1086.91 604.898Q1085.96 606.093 1084.98 607.265Q1084 608.436 1082.98 609.584Q1081.97 610.731 1080.93 611.853Q1079.89 612.975 1078.83 614.071Q1077.76 615.167 1076.67 616.237Q1075.58 617.306 1074.46 618.349Q1073.34 619.391 1072.19 620.405Q1071.05 621.42 1069.88 622.406Q1068.71 623.392 1067.52 624.349Q1066.33 625.306 1065.11 626.234Q1063.89 627.161 1062.66 628.058Q1061.42 628.956 1060.16 629.822Q1058.9 630.689 1057.62 631.524Q1056.34 632.359 1055.04 633.163Q1053.73 633.967 1052.41 634.738Q1051.09 635.509 1049.75 636.248Q1048.42 636.987 1047.06 637.692Q1045.7 638.398 1044.33 639.07Q1042.96 639.742 1041.57 640.38Q1040.18 641.018 1038.77 641.621Q1037.37 642.225 1035.95 642.794Q1034.53 643.363 1033.09 643.897Q1031.66 644.431 1030.22 644.929Q1028.77 645.428 1027.31 645.89Q1025.86 646.353 1024.39 646.78Q1022.92 647.207 1021.44 647.597Q1019.96 647.988 1018.47 648.342Q1016.99 648.696 1015.49 649.014Q1014 649.331 1012.49 649.612Q1010.99 649.892 1009.48 650.136C996.25 652.356 983.533 651.345 970.344 652.452Z"/>
	<path fill="#FEFEFE" d="M1008.1 437.455C1017.95 436.452 1027.95 438.044 1036.77 442.621C1048.17 448.537 1057.14 458.583 1061 470.884C1063.12 477.628 1065.5 502.971 1062.17 509.261L1050.32 509.264C1050.52 508.893 1050.86 508.285 1050.99 507.849C1052.45 503.118 1051.4 482.969 1050.39 478.302Q1049.77 475.411 1048.68 472.664Q1047.59 469.916 1046.06 467.387C1039.96 457.292 1031.11 452.602 1019.97 449.822C1018.45 449.655 1016.93 449.532 1015.4 449.519C1004.15 449.421 994.231 453.029 986.262 461.083C973.066 474.417 975.843 492.139 975.863 509.331L963.776 509.319C963.65 492.313 961.919 474.615 971.77 459.703C980.243 446.877 993.423 440.419 1008.1 437.455Z"/>
	<path fill="#FEFEFE" d="M946.801 514.842C967.978 514.524 989.25 515.152 1010.44 515.196C1033.67 515.244 1056.91 514.728 1080.14 514.925C1083 519.936 1081.12 550.313 1079.4 556.832C1076.05 569.498 1066.14 586.807 1054.46 593.674C1051.03 601.87 1022.99 616.828 1014.38 620.4C998.166 614.622 981.91 603.595 969.882 591.336C944.321 565.282 946.438 548.233 946.801 514.842Z"/>
	<defs>
		<linearGradient id="gradient_0" gradientUnits="userSpaceOnUse" x1="635.17145" y1="736.8399" x2="656.87842" y2="418.67776">
			<stop offset="0" stop-color="#F50F33"/>
			<stop offset="1" stop-color="#FD6C2F"/>
		</linearGradient>
	</defs>
	<path fill="url(#gradient_0)" d="M251.094 515.091C251.814 495.288 250.319 475.388 251.082 455.595C251.323 449.357 253.173 442.632 258.039 438.377C261.054 435.739 265.705 433.732 269.688 433.477C278.76 432.897 288.123 433.367 297.235 433.361L351.914 433.358L527.451 433.778L745.466 433.877C780.018 433.889 814.86 432.562 849.38 433.907C849.732 434.208 849.994 434.67 850.435 434.809C852.332 435.405 886.504 435.019 892.048 434.993C867.779 465.248 855.582 509.402 859.884 547.99Q860.084 549.918 860.331 551.841Q860.579 553.764 860.875 555.68Q861.171 557.596 861.515 559.504Q861.858 561.412 862.25 563.311Q862.641 565.21 863.08 567.098Q863.519 568.987 864.004 570.864Q864.49 572.741 865.023 574.605Q865.555 576.469 866.135 578.319Q866.714 580.169 867.339 582.004Q867.964 583.84 868.635 585.659Q869.306 587.477 870.022 589.279Q870.738 591.081 871.499 592.864Q872.26 594.647 873.066 596.41Q873.871 598.174 874.72 599.917Q875.569 601.659 876.462 603.38Q877.355 605.101 878.29 606.799Q879.225 608.497 880.203 610.171Q881.181 611.846 882.2 613.495Q883.219 615.144 884.279 616.767Q885.339 618.39 886.439 619.986Q887.54 621.582 888.68 623.15Q889.82 624.718 890.998 626.257Q892.177 627.796 893.394 629.305Q894.611 630.815 895.865 632.293Q897.12 633.771 898.41 635.217Q899.701 636.663 901.028 638.077Q902.355 639.49 903.716 640.87Q905.078 642.25 906.474 643.595Q907.869 644.941 909.298 646.25Q910.727 647.561 912.188 648.834Q913.649 650.108 915.142 651.345Q916.635 652.582 918.158 653.781C948.856 678.205 991.076 692.213 1030.45 687.505C1033.54 687.136 1039.67 686.575 1042.25 684.879C1042.5 685.599 1042.71 686.221 1042.72 686.991C1042.8 692.608 1039.13 700.052 1035.31 704.052C1028.69 710.982 1019.69 713.197 1010.4 713.389C992.006 713.771 973.532 713.268 955.13 713.239L858.327 713.338L555.27 713.624L367.29 713.771L306.206 713.796C295.049 713.795 283.552 714.334 272.436 713.525C267.464 713.163 262.521 711.074 258.949 707.566Q258.386 707.004 257.861 706.406Q257.337 705.808 256.854 705.175Q256.37 704.543 255.931 703.88Q255.491 703.217 255.097 702.525Q254.703 701.834 254.357 701.118Q254.01 700.401 253.712 699.664Q253.414 698.926 253.167 698.17Q252.919 697.413 252.723 696.642C250.365 687.307 251.839 652.372 251.705 640.488L251.71 632.6L623.029 632.605L745.333 632.579L783.505 632.523C790.547 632.508 797.839 632.868 804.849 632.259C809.787 631.829 814.13 629.693 817.626 626.229C820.894 622.992 822.913 618.888 823.813 614.399C826.02 603.392 824.401 590.282 824.319 579.042C824.233 567.188 824.588 555.338 824.579 543.486C824.573 534.788 823.448 526.642 816.92 520.303C812.419 515.934 807.567 515.373 801.464 514.911C782.602 513.483 760.012 514.677 740.801 514.688L621.283 514.715L251.094 515.091Z"/>
</svg>
