<?xml version="1.0" encoding="utf-8" ?>
<svg xmlns="http://www.w3.org/2000/svg" xmlns:xlink="http://www.w3.org/1999/xlink" width="512" height="512">
	<path fill="#696EFF" d="M0 0L0 512L512 512L512 0L0 0Z"/>
	<path fill="#F8ACFF" d="M112.287 223.538C122.804 223.539 133.231 221.419 142.569 216.447C143.434 215.987 144.275 215.485 145.147 215.038C145.313 215.033 147.746 216.45 148.099 216.635C157.478 221.544 167.454 223.584 177.955 223.538L177.955 235.134C177.955 244.787 177.752 252.241 174.439 261.704C169.191 276.696 158.655 288.296 145.147 296.259C126.535 284.92 114.164 267.446 112.459 245.197C112.225 242.145 112.285 239.078 112.285 236.02L112.287 223.538ZM144.815 231.566C139.46 231.655 134.963 236.403 135.094 241.747C135.206 246.351 137.54 248.744 141.163 250.896C140.661 252.117 140.288 253.407 139.852 254.655L136.422 264.654C135.922 266.091 135.464 267.573 134.85 268.966L145.598 268.966L155.909 268.966C155.143 266.577 154.271 264.215 153.437 261.848L151.039 254.867C150.562 253.477 150.032 252.097 149.602 250.692C152.369 248.833 154.318 246.75 154.982 243.37C156.185 237.248 151.013 230.946 144.815 231.566Z"/>
	<path fill="#F8ACFF" d="M208.59 278C206.104 278 204.035 277.467 202.384 276.402C200.732 275.337 199.481 273.863 198.628 271.981C197.776 270.098 197.279 267.914 197.137 265.429L202.464 263.99C202.57 265.517 202.81 266.991 203.183 268.412C203.556 269.832 204.168 270.995 205.021 271.901C205.873 272.806 207.063 273.259 208.59 273.259C210.152 273.259 211.333 272.824 212.132 271.954C212.931 271.084 213.331 269.832 213.331 268.199C213.331 266.245 212.887 264.674 211.999 263.484C211.111 262.295 209.992 261.096 208.643 259.889L201.398 253.496C199.978 252.253 198.93 250.895 198.255 249.421C197.581 247.948 197.243 246.128 197.243 243.961C197.243 240.801 198.149 238.35 199.96 236.61C201.771 234.87 204.239 234 207.364 234C209.069 234 210.569 234.222 211.866 234.666C213.162 235.11 214.245 235.793 215.115 236.717C215.985 237.64 216.678 238.803 217.192 240.206C217.707 241.609 218.054 243.251 218.231 245.133L213.117 246.518C213.011 245.098 212.798 243.793 212.478 242.603C212.159 241.413 211.599 240.454 210.8 239.726C210.001 238.998 208.856 238.634 207.364 238.634C205.873 238.634 204.71 239.034 203.875 239.833C203.041 240.632 202.623 241.813 202.623 243.375C202.623 244.689 202.845 245.772 203.289 246.625C203.733 247.477 204.452 248.347 205.447 249.235L212.745 255.627C214.378 257.048 215.816 258.743 217.059 260.714C218.302 262.685 218.924 265.02 218.924 267.719C218.924 269.85 218.48 271.688 217.592 273.232C216.704 274.777 215.488 275.958 213.943 276.775C212.398 277.592 210.614 278 208.59 278ZM231.655 277.947C229.24 277.947 227.376 277.476 226.062 276.535C224.748 275.594 223.833 274.209 223.318 272.38C222.803 270.551 222.546 268.305 222.546 265.642L222.546 258.61C222.546 255.876 222.812 253.603 223.345 251.792C223.878 249.981 224.81 248.613 226.142 247.69C227.473 246.767 229.311 246.305 231.655 246.305C234.247 246.305 236.156 246.838 237.381 247.903C238.607 248.969 239.414 250.504 239.805 252.511C240.196 254.517 240.391 256.923 240.391 259.729L240.391 262.232L228.246 262.232L228.246 268.412C228.246 269.655 228.361 270.667 228.592 271.448C228.823 272.229 229.196 272.806 229.711 273.179C230.226 273.552 230.891 273.738 231.708 273.738C232.561 273.738 233.209 273.534 233.653 273.126C234.096 272.717 234.398 272.132 234.558 271.368C234.718 270.605 234.798 269.708 234.798 268.678L234.798 266.814L240.338 266.814L240.338 267.985C240.338 271.075 239.681 273.508 238.367 275.283C237.053 277.059 234.816 277.947 231.655 277.947ZM228.246 259.143L234.798 259.143L234.798 256.373C234.798 255.094 234.727 254.02 234.585 253.15C234.443 252.28 234.15 251.623 233.706 251.179C233.262 250.735 232.561 250.513 231.602 250.513C230.678 250.513 229.977 250.726 229.498 251.153C229.018 251.579 228.69 252.298 228.512 253.31C228.335 254.322 228.246 255.716 228.246 257.492L228.246 259.143ZM253.975 277.947C251.453 277.947 249.544 277.441 248.248 276.429C246.952 275.416 246.082 273.987 245.638 272.14C245.194 270.294 244.972 268.145 244.972 265.695L244.972 258.61C244.972 256.018 245.203 253.807 245.665 251.978C246.126 250.149 247.005 248.747 248.301 247.77C249.598 246.793 251.489 246.305 253.975 246.305C256.212 246.305 257.943 246.669 259.168 247.397C260.393 248.125 261.237 249.208 261.699 250.646C262.16 252.085 262.391 253.869 262.391 256L262.391 257.811L257.224 257.811L257.224 255.947C257.224 254.597 257.135 253.532 256.958 252.751C256.78 251.969 256.461 251.401 255.999 251.046C255.537 250.691 254.88 250.513 254.028 250.513C253.105 250.513 252.394 250.726 251.897 251.153C251.4 251.579 251.071 252.298 250.912 253.31C250.752 254.322 250.672 255.698 250.672 257.438L250.672 267.133C250.672 269.761 250.921 271.519 251.418 272.407C251.915 273.295 252.803 273.738 254.081 273.738C255.04 273.738 255.742 273.517 256.185 273.073C256.629 272.629 256.913 271.998 257.038 271.182C257.162 270.365 257.224 269.441 257.224 268.412L257.224 265.908L262.391 265.908L262.391 268.039C262.391 270.098 262.151 271.874 261.672 273.366C261.192 274.857 260.34 275.994 259.115 276.775C257.89 277.556 256.176 277.947 253.975 277.947ZM271.873 277.947C270.665 277.947 269.725 277.627 269.05 276.988C268.375 276.349 267.904 275.55 267.638 274.591C267.372 273.632 267.238 272.655 267.238 271.661L267.238 246.731L272.938 246.731L272.938 269.956C272.938 271.057 273.098 271.918 273.418 272.54C273.737 273.161 274.394 273.472 275.389 273.472C276.028 273.472 276.694 273.286 277.386 272.913C278.079 272.54 278.745 272.087 279.384 271.554L279.384 246.731L285.084 246.731L285.084 277.521L279.384 277.521L279.384 274.484C278.389 275.443 277.262 276.26 276.001 276.935C274.74 277.609 273.364 277.947 271.873 277.947ZM291.05 277.521L291.05 246.731L296.749 246.731L296.749 251.099C297.886 249.217 299.022 247.956 300.159 247.317C301.295 246.678 302.432 246.358 303.568 246.358C303.71 246.358 303.843 246.358 303.967 246.358C304.091 246.358 304.26 246.376 304.473 246.412L304.473 252.697C304.047 252.52 303.559 252.369 303.008 252.245C302.458 252.12 301.899 252.058 301.331 252.058C300.443 252.058 299.635 252.262 298.907 252.671C298.179 253.079 297.459 253.869 296.749 255.041L296.749 277.521L291.05 277.521ZM316.352 277.947C313.938 277.947 312.073 277.476 310.759 276.535C309.445 275.594 308.531 274.209 308.016 272.38C307.501 270.551 307.243 268.305 307.243 265.642L307.243 258.61C307.243 255.876 307.51 253.603 308.042 251.792C308.575 249.981 309.507 248.613 310.839 247.69C312.171 246.767 314.008 246.305 316.352 246.305C318.945 246.305 320.854 246.838 322.079 247.903C323.304 248.969 324.112 250.504 324.502 252.511C324.893 254.517 325.088 256.923 325.088 259.729L325.088 262.232L312.943 262.232L312.943 268.412C312.943 269.655 313.059 270.667 313.289 271.448C313.52 272.229 313.893 272.806 314.408 273.179C314.923 273.552 315.589 273.738 316.406 273.738C317.258 273.738 317.906 273.534 318.35 273.126C318.794 272.717 319.096 272.132 319.255 271.368C319.415 270.605 319.495 269.708 319.495 268.678L319.495 266.814L325.035 266.814L325.035 267.985C325.035 271.075 324.378 273.508 323.064 275.283C321.75 277.059 319.513 277.947 316.352 277.947ZM312.943 259.143L319.495 259.143L319.495 256.373C319.495 255.094 319.424 254.02 319.282 253.15C319.14 252.28 318.847 251.623 318.403 251.179C317.959 250.735 317.258 250.513 316.299 250.513C315.376 250.513 314.674 250.726 314.195 251.153C313.715 251.579 313.387 252.298 313.209 253.31C313.032 254.322 312.943 255.716 312.943 257.492L312.943 259.143ZM330.735 277.521L330.735 234.373L341.442 234.373C344.034 234.373 346.103 234.843 347.648 235.785C349.192 236.726 350.32 238.084 351.03 239.86C351.74 241.635 352.096 243.784 352.096 246.305C352.096 248.578 351.696 250.549 350.897 252.218C350.098 253.887 348.917 255.174 347.355 256.08C345.792 256.985 343.839 257.438 341.495 257.438L336.754 257.438L336.754 277.521L330.735 277.521ZM336.754 253.123L339.524 253.123C341.265 253.123 342.631 252.928 343.626 252.538C344.62 252.147 345.331 251.463 345.757 250.487C346.183 249.51 346.396 248.134 346.396 246.358C346.396 244.299 346.245 242.718 345.943 241.617C345.641 240.517 345.011 239.753 344.052 239.327C343.093 238.901 341.602 238.688 339.577 238.688L336.754 238.688L336.754 253.123ZM359.127 277.947C357.92 277.947 356.854 277.6 355.931 276.908C355.008 276.215 354.28 275.328 353.747 274.245C353.214 273.161 352.948 272.016 352.948 270.809C352.948 268.891 353.268 267.275 353.907 265.961C354.546 264.647 355.425 263.538 356.544 262.632C357.662 261.726 358.958 260.936 360.432 260.262C361.906 259.587 363.459 258.93 365.093 258.291L365.093 256.107C365.093 254.864 365.022 253.834 364.88 253.017C364.738 252.2 364.445 251.588 364.001 251.179C363.557 250.771 362.892 250.567 362.004 250.567C361.222 250.567 360.592 250.744 360.113 251.099C359.633 251.454 359.287 251.96 359.074 252.617C358.861 253.274 358.754 254.047 358.754 254.935L358.754 256.479L353.108 256.266C353.179 252.857 353.96 250.345 355.452 248.729C356.943 247.113 359.251 246.305 362.377 246.305C365.43 246.305 367.597 247.14 368.875 248.809C370.154 250.478 370.793 252.893 370.793 256.053L370.793 270.116C370.793 271.075 370.82 271.998 370.873 272.886C370.926 273.774 370.997 274.6 371.086 275.363C371.175 276.127 371.255 276.846 371.326 277.521L366.105 277.521C365.999 276.952 365.866 276.233 365.706 275.363C365.546 274.493 365.43 273.703 365.36 272.993C365.004 274.2 364.321 275.328 363.309 276.375C362.297 277.423 360.903 277.947 359.127 277.947ZM361.364 273.046C361.933 273.046 362.465 272.886 362.962 272.567C363.459 272.247 363.904 271.883 364.294 271.475C364.685 271.066 364.951 270.738 365.093 270.489L365.093 261.753C364.205 262.25 363.371 262.747 362.59 263.245C361.808 263.742 361.125 264.266 360.539 264.816C359.953 265.366 359.491 265.988 359.154 266.68C358.817 267.373 358.648 268.163 358.648 269.051C358.648 270.294 358.878 271.27 359.34 271.981C359.802 272.691 360.476 273.046 361.364 273.046ZM383.418 277.947C380.896 277.947 378.872 277.157 377.345 275.576C375.818 273.996 374.948 271.91 374.735 269.317L379.476 267.879C379.76 269.832 380.239 271.297 380.914 272.274C381.589 273.25 382.583 273.738 383.897 273.738C384.927 273.738 385.708 273.446 386.241 272.86C386.774 272.274 387.04 271.483 387.04 270.489C387.04 269.601 386.844 268.802 386.454 268.092C386.064 267.382 385.424 266.654 384.536 265.908L379.263 261.38C378.197 260.457 377.301 259.427 376.573 258.291C375.844 257.154 375.481 255.68 375.481 253.869C375.481 252.236 375.809 250.86 376.466 249.741C377.123 248.622 378.047 247.77 379.236 247.184C380.426 246.598 381.82 246.305 383.418 246.305C385.975 246.305 387.928 247.095 389.277 248.676C390.627 250.256 391.408 252.165 391.621 254.402L387.573 255.84C387.43 254.775 387.217 253.843 386.933 253.044C386.649 252.245 386.241 251.623 385.708 251.179C385.176 250.735 384.483 250.513 383.631 250.513C382.708 250.513 381.97 250.824 381.42 251.446C380.87 252.067 380.594 252.804 380.594 253.656C380.594 254.189 380.71 254.713 380.941 255.228C381.171 255.743 381.571 256.249 382.139 256.746L387.573 261.753C388.318 262.428 389.02 263.156 389.677 263.937C390.334 264.718 390.875 265.606 391.301 266.6C391.728 267.595 391.941 268.749 391.941 270.063C391.941 271.803 391.585 273.259 390.875 274.431C390.165 275.603 389.171 276.482 387.892 277.068C386.614 277.654 385.122 277.947 383.418 277.947ZM403.34 277.947C400.819 277.947 398.795 277.157 397.268 275.576C395.74 273.996 394.87 271.91 394.657 269.317L399.398 267.879C399.682 269.832 400.162 271.297 400.837 272.274C401.511 273.25 402.505 273.738 403.82 273.738C404.849 273.738 405.631 273.446 406.163 272.86C406.696 272.274 406.962 271.483 406.962 270.489C406.962 269.601 406.767 268.802 406.377 268.092C405.986 267.382 405.347 266.654 404.459 265.908L399.185 261.38C398.12 260.457 397.223 259.427 396.495 258.291C395.767 257.154 395.403 255.68 395.403 253.869C395.403 252.236 395.732 250.86 396.389 249.741C397.045 248.622 397.969 247.77 399.159 247.184C400.348 246.598 401.742 246.305 403.34 246.305C405.897 246.305 407.85 247.095 409.2 248.676C410.549 250.256 411.331 252.165 411.544 254.402L407.495 255.84C407.353 254.775 407.14 253.843 406.856 253.044C406.572 252.245 406.163 251.623 405.631 251.179C405.098 250.735 404.406 250.513 403.553 250.513C402.63 250.513 401.893 250.824 401.343 251.446C400.792 252.067 400.517 252.804 400.517 253.656C400.517 254.189 400.633 254.713 400.863 255.228C401.094 255.743 401.493 256.249 402.062 256.746L407.495 261.753C408.241 262.428 408.942 263.156 409.599 263.937C410.256 264.718 410.798 265.606 411.224 266.6C411.65 267.595 411.863 268.749 411.863 270.063C411.863 271.803 411.508 273.259 410.798 274.431C410.088 275.603 409.093 276.482 407.815 277.068C406.536 277.654 405.045 277.947 403.34 277.947Z"/>
</svg>
