<?xml version="1.0" encoding="utf-8" ?>
<svg xmlns="http://www.w3.org/2000/svg" xmlns:xlink="http://www.w3.org/1999/xlink" width="1365" height="1024">
	<path fill="#696EFF" d="M0 0L1363.83 0C1366 3.79054 1365 11.8007 1365 16.2249L1365.01 810.316L1365 969.913C1365 977.573 1366.16 1017.87 1364.59 1022.54C1364.42 1023.05 1364.09 1023.55 1363.83 1024L0 1024L0 0Z"/>
	<path fill="#FF5400" d="M281.263 699.134C265.702 675.929 254.133 650.448 248.357 623.023C240.641 586.388 242.707 548.61 242.714 511.394C242.721 476.406 240.758 440.784 247.92 406.34Q249.001 401.046 250.328 395.808Q251.655 390.57 253.226 385.4Q254.797 380.23 256.609 375.139Q258.42 370.048 260.468 365.048Q262.515 360.048 264.795 355.149Q267.075 350.25 269.581 345.463Q272.088 340.676 274.816 336.012Q277.544 331.348 280.487 326.817C317.724 269.781 372.935 232.922 439.5 219.055C461.05 214.565 482.63 214.689 504.52 214.689L553.442 214.643L725.236 214.626L840.697 214.671C866.783 214.644 893.785 213.032 919.618 216.87Q925.484 217.782 931.291 219.012Q937.099 220.242 942.831 221.785Q948.564 223.329 954.204 225.181Q959.844 227.034 965.375 229.19Q970.906 231.346 976.312 233.8Q981.718 236.253 986.983 238.996Q992.248 241.74 997.356 244.765Q1002.46 247.791 1007.4 251.089C1028.62 264.994 1045.62 281.274 1061.59 300.859C1064.07 303.904 1068.98 308.845 1069.78 312.691C1069.6 317.503 1064.25 330.165 1060.82 333.4C1060.7 333.286 1060.58 333.174 1060.46 333.058C1053.46 326.312 1048.25 317.322 1041.92 309.913Q1038.34 305.653 1034.55 301.586Q1030.75 297.518 1026.75 293.654Q1022.74 289.79 1018.55 286.139Q1014.35 282.489 1009.97 279.062Q1005.58 275.635 1001.03 272.441Q996.472 269.248 991.757 266.295Q987.042 263.343 982.179 260.641Q977.317 257.938 972.32 255.493Q968.38 253.622 964.368 251.909Q960.357 250.195 956.281 248.641Q952.206 247.087 948.072 245.696Q943.938 244.304 939.752 243.077Q935.567 241.85 931.336 240.789Q927.105 239.729 922.836 238.836Q918.566 237.943 914.265 237.219Q909.964 236.496 905.637 235.943C887.54 233.758 868.932 234.396 850.715 234.278L757.62 234.152L481.79 234.151C421.575 234.71 367.691 256.881 325.377 300.129C291.708 334.542 267.948 380.841 262.684 428.958C260.669 447.38 261.422 466.604 261.65 485.112Q262.01 513.378 261.683 541.644C261.321 577.435 260.666 611.078 273.492 645.134C279.539 661.191 287.589 675.107 297.155 689.258C298.871 691.796 301.551 694.916 302.149 697.967C295.171 698.16 288.225 698.639 281.263 699.134Z"/>
	<path fill="#FF0054" d="M302.149 697.967C301.551 694.916 298.871 691.796 297.155 689.258C287.589 675.107 279.539 661.191 273.492 645.134C260.666 611.078 261.321 577.435 261.683 541.644Q262.01 513.378 261.65 485.112C261.422 466.604 260.669 447.38 262.684 428.958C267.948 380.841 291.708 334.542 325.377 300.129C367.691 256.881 421.575 234.71 481.79 234.151L757.62 234.152L850.715 234.278C868.932 234.396 887.54 233.758 905.637 235.943Q909.964 236.496 914.265 237.219Q918.566 237.943 922.836 238.836Q927.105 239.728 931.336 240.789Q935.567 241.85 939.752 243.077Q943.938 244.304 948.072 245.696Q952.206 247.087 956.281 248.641Q960.357 250.195 964.368 251.909Q968.38 253.622 972.32 255.493Q977.317 257.938 982.179 260.641Q987.042 263.343 991.757 266.296Q996.472 269.248 1001.03 272.441Q1005.58 275.635 1009.97 279.062Q1014.35 282.489 1018.55 286.139Q1022.74 289.79 1026.75 293.654Q1030.75 297.518 1034.55 301.586Q1038.34 305.653 1041.92 309.913C1048.25 317.322 1053.46 326.312 1060.46 333.058C1060.58 333.174 1060.7 333.286 1060.82 333.4L1060.26 335.055C1058 345.458 1027.95 383.262 1020.35 393.023L1019.94 433.995C1019.87 446.245 1021.74 463.146 1017.95 474.711C1016.44 479.315 1012.44 484.038 1009 487.377C1004.42 491.824 998.895 495.065 992.55 496.105C981.791 497.869 969.826 496.931 958.894 496.95L906.327 497.13L824.095 496.744C804.377 496.78 784.554 497.307 764.845 496.848Q762.469 496.791 760.094 496.688C745.737 505.654 728.922 512.253 713.373 518.9C706.576 521.806 699.243 524.484 692.893 528.278C692.713 528.349 692.535 528.424 692.354 528.489C684.766 531.21 640.085 529.799 628.713 529.849L437.221 529.878C422.47 529.867 390.95 527.747 378.448 531.229C369.243 533.793 359.819 543.501 355.665 551.866Q354.878 553.463 354.227 555.12Q353.577 556.777 353.067 558.482Q352.557 560.188 352.191 561.93Q351.825 563.672 351.606 565.439C350.152 577.215 351.207 590.025 351.261 601.892C351.312 612.967 350.564 624.446 351.473 635.473Q351.712 638.571 352.355 641.611Q352.997 644.65 354.032 647.58C358.448 660.094 367.234 670.718 379.272 676.468C384.156 678.8 389.433 680.328 394.712 681.471C377.348 691.739 323.504 697.397 303.135 698.001L302.149 697.967Z"/>
	<path fill="#696EFF" d="M760.094 496.688C749.494 496.15 738.669 496.555 728.051 496.582L667.819 496.704L479.947 496.604L419.163 496.631C408.187 496.634 396.757 497.289 385.85 496.264Q383.704 496.056 381.598 495.598Q379.491 495.141 377.453 494.439Q375.414 493.737 373.472 492.802Q371.53 491.866 369.711 490.709Q368.881 490.184 368.078 489.618Q367.274 489.052 366.5 488.447Q365.726 487.843 364.982 487.2Q364.239 486.558 363.528 485.88Q362.818 485.201 362.141 484.489Q361.465 483.776 360.824 483.031Q360.184 482.286 359.582 481.51Q358.979 480.734 358.415 479.929Q357.852 479.124 357.329 478.293Q356.806 477.461 356.324 476.604Q355.843 475.748 355.404 474.868Q354.966 473.989 354.572 473.089Q354.177 472.189 353.828 471.271Q353.478 470.353 353.175 469.418Q352.871 468.484 352.614 467.535Q352.357 466.587 352.147 465.627C350.092 456.169 350.014 402.207 351.578 392.374C352.433 386.996 354.228 382.07 357.214 377.502Q357.743 376.697 358.311 375.918Q358.878 375.14 359.484 374.39Q360.089 373.641 360.73 372.922Q361.371 372.202 362.046 371.516Q362.722 370.829 363.43 370.175Q364.138 369.522 364.877 368.905Q365.617 368.287 366.385 367.706Q367.154 367.126 367.95 366.583Q368.746 366.041 369.568 365.538Q370.389 365.035 371.234 364.573Q372.08 364.111 372.947 363.69Q373.813 363.27 374.7 362.893Q375.586 362.516 376.49 362.182Q377.393 361.849 378.312 361.56Q379.231 361.271 380.163 361.027Q381.095 360.784 382.038 360.586C388.551 359.285 395.821 359.864 402.466 359.822L436.923 359.665L581.541 359.677L868.528 359.705L941.606 359.597C955.706 359.498 970.001 358.829 984.076 359.411C991.366 359.713 998.192 361.865 1004.23 366.015C1013.67 372.508 1018.24 382.045 1020.35 393.023L1019.94 433.995C1019.87 446.245 1021.74 463.146 1017.95 474.711C1016.44 479.315 1012.44 484.038 1009 487.377C1004.42 491.824 998.895 495.065 992.55 496.105C981.791 497.869 969.826 496.931 958.894 496.95L906.327 497.13L824.095 496.744C804.377 496.78 784.554 497.307 764.845 496.848Q762.469 496.791 760.094 496.688Z"/>
	<path fill="#FF5400" d="M551.614 400.8C556.727 400.418 561.003 400.6 565.709 402.871C571.188 405.515 575.363 410.512 577.256 416.266Q577.438 416.812 577.592 417.367Q577.746 417.922 577.872 418.484Q577.998 419.045 578.096 419.613Q578.193 420.18 578.262 420.752Q578.331 421.324 578.371 421.898Q578.411 422.473 578.421 423.048Q578.432 423.624 578.414 424.2Q578.395 424.775 578.348 425.349Q578.301 425.923 578.224 426.494Q578.148 427.064 578.043 427.63Q577.938 428.197 577.805 428.757Q577.672 429.317 577.51 429.87Q577.348 430.422 577.159 430.966Q576.97 431.51 576.754 432.043Q576.537 432.577 576.294 433.099Q576.051 433.621 575.782 434.13C572.227 440.954 566.587 444.401 559.443 446.588C554.532 446.933 550.258 446.62 545.763 444.434Q545.246 444.184 544.743 443.908Q544.239 443.633 543.75 443.333Q543.26 443.033 542.786 442.709Q542.312 442.385 541.854 442.038Q541.397 441.691 540.957 441.323Q540.517 440.954 540.096 440.563Q539.675 440.173 539.273 439.763Q538.872 439.352 538.491 438.923Q538.111 438.493 537.752 438.045Q537.393 437.597 537.056 437.131Q536.72 436.666 536.407 436.185Q536.094 435.704 535.805 435.208Q535.516 434.712 535.251 434.202Q534.987 433.692 534.748 433.17Q534.51 432.648 534.297 432.114Q534.084 431.581 533.898 431.038Q533.71 430.506 533.55 429.965Q533.39 429.424 533.257 428.876Q533.125 428.327 533.02 427.773Q532.915 427.218 532.839 426.659Q532.763 426.1 532.716 425.538Q532.668 424.976 532.649 424.412Q532.63 423.848 532.64 423.284Q532.65 422.72 532.688 422.157Q532.727 421.594 532.794 421.034Q532.861 420.474 532.956 419.918Q533.052 419.362 533.175 418.812Q533.299 418.261 533.45 417.718Q533.602 417.174 533.781 416.639Q533.96 416.104 534.166 415.579Q534.372 415.054 534.604 414.54Q534.837 414.026 535.095 413.524C538.644 406.53 544.4 403.161 551.614 400.8Z"/>
	<path fill="#FF5400" d="M486.612 400.771C491.704 400.413 496.655 401.404 501.079 404.033Q501.576 404.33 502.057 404.651Q502.538 404.973 503.002 405.318Q503.467 405.663 503.913 406.03Q504.36 406.398 504.787 406.788Q505.215 407.178 505.623 407.589Q506.03 407.999 506.417 408.43Q506.803 408.86 507.168 409.31Q507.532 409.759 507.874 410.226Q508.215 410.693 508.533 411.177Q508.851 411.66 509.144 412.159Q509.437 412.658 509.705 413.171Q509.973 413.684 510.215 414.209Q510.457 414.735 510.672 415.272Q510.887 415.809 511.075 416.357Q511.264 416.904 511.424 417.46Q511.585 418.016 511.717 418.579Q511.85 419.121 511.956 419.669Q512.062 420.217 512.141 420.77Q512.22 421.323 512.272 421.878Q512.324 422.434 512.348 422.992Q512.373 423.55 512.37 424.108Q512.367 424.666 512.337 425.224Q512.307 425.781 512.25 426.336Q512.192 426.891 512.107 427.443Q512.023 427.995 511.911 428.542Q511.8 429.089 511.661 429.63Q511.523 430.171 511.359 430.704Q511.194 431.237 511.004 431.762Q510.813 432.287 510.597 432.802Q510.381 433.316 510.14 433.82Q509.899 434.323 509.634 434.814Q509.368 435.306 509.079 435.783C505.276 441.956 499.548 444.84 492.719 446.5C487.328 446.934 482.52 446.478 477.762 443.715C472.474 440.645 468.68 435.243 467.193 429.351Q467.045 428.79 466.926 428.222Q466.807 427.654 466.717 427.081Q466.626 426.508 466.565 425.931Q466.503 425.354 466.47 424.774Q466.438 424.195 466.435 423.615Q466.431 423.035 466.457 422.455Q466.483 421.875 466.537 421.298Q466.592 420.72 466.676 420.146Q466.76 419.572 466.872 419.002Q466.985 418.433 467.126 417.87Q467.267 417.307 467.436 416.752Q467.605 416.197 467.801 415.651Q467.998 415.105 468.222 414.57Q468.446 414.035 468.696 413.511Q468.947 412.988 469.223 412.478Q469.499 411.968 469.801 411.472C473.758 405.059 479.572 402.515 486.612 400.771Z"/>
	<path fill="#FF5400" d="M417.11 400.779C422.679 400.379 427.367 400.698 432.337 403.493Q432.838 403.781 433.325 404.094Q433.811 404.407 434.282 404.744Q434.752 405.081 435.205 405.441Q435.658 405.801 436.092 406.183Q436.527 406.565 436.941 406.968Q437.356 407.371 437.751 407.794Q438.145 408.217 438.518 408.66Q438.891 409.102 439.241 409.562Q439.591 410.023 439.918 410.5Q440.245 410.977 440.548 411.47Q440.851 411.963 441.129 412.47Q441.407 412.978 441.659 413.498Q441.911 414.019 442.138 414.551Q442.364 415.084 442.563 415.627Q442.762 416.17 442.934 416.722Q443.107 417.275 443.251 417.835C444.842 423.771 444.157 430.082 441.062 435.42C437.357 441.811 431.843 444.793 424.938 446.688C418.867 447.001 413.782 446.795 408.416 443.631Q407.938 443.349 407.474 443.044Q407.011 442.738 406.562 442.41Q406.114 442.083 405.683 441.733Q405.251 441.384 404.838 441.014Q404.424 440.644 404.029 440.254Q403.634 439.863 403.258 439.454Q402.883 439.045 402.528 438.619Q402.173 438.192 401.839 437.748Q401.506 437.304 401.194 436.844Q400.883 436.384 400.595 435.91Q400.306 435.435 400.042 434.947Q399.777 434.459 399.537 433.959Q399.296 433.458 399.081 432.947Q398.865 432.435 398.675 431.913Q398.485 431.392 398.32 430.861Q398.156 430.331 398.018 429.793Q397.87 429.21 397.752 428.621Q397.633 428.031 397.544 427.436Q397.455 426.842 397.396 426.243Q397.336 425.645 397.307 425.044Q397.277 424.443 397.277 423.842Q397.277 423.241 397.307 422.64Q397.337 422.04 397.397 421.441Q397.457 420.843 397.546 420.248Q397.636 419.654 397.754 419.064Q397.873 418.474 398.021 417.892Q398.169 417.309 398.346 416.734Q398.522 416.159 398.727 415.594Q398.932 415.028 399.165 414.474Q399.398 413.92 399.658 413.377Q399.917 412.835 400.204 412.306Q400.491 411.778 400.803 411.264C404.64 405.079 410.265 402.412 417.11 400.779Z"/>
	<path fill="#F4F4FF" d="M620.5 413.395C645.625 412.414 671.058 413.232 696.217 413.237L840.496 413.256C852.744 413.258 939.608 412.074 944.682 413.778Q945.313 413.983 945.921 414.252Q946.528 414.521 947.105 414.85Q947.681 415.179 948.221 415.566Q948.761 415.952 949.259 416.392Q949.757 416.831 950.208 417.319Q950.658 417.807 951.056 418.339Q951.455 418.87 951.797 419.439Q952.139 420.009 952.421 420.61C953.874 423.699 954.094 427.438 952.762 430.608C951.109 434.545 948.269 436.316 944.529 437.888C933.871 439.861 921.083 438.66 910.214 438.694L840.672 438.733L701.43 438.689C677.066 438.695 652.575 439.202 628.225 438.609C625.177 438.535 621.025 438.73 618.361 437.079C618.148 436.947 617.947 436.796 617.738 436.656C615.962 435.465 614.394 434.245 613.264 432.388C611.613 429.673 611.337 426.509 612.092 423.464C613.314 418.535 616.402 415.947 620.5 413.395Z"/>
	<path fill="#FF69FA" d="M1069.78 312.691C1073.88 315.283 1077.31 321.633 1079.99 325.692Q1083.39 330.879 1086.55 336.217Q1089.71 341.554 1092.62 347.03Q1095.53 352.507 1098.19 358.111Q1100.85 363.714 1103.25 369.434Q1105.65 375.154 1107.78 380.977Q1109.92 386.801 1111.79 392.716Q1113.65 398.631 1115.25 404.625Q1116.84 410.619 1118.16 416.68C1124.59 445.182 1123.25 473.722 1123.37 502.708C1123.47 526.938 1124.91 554.632 1123.46 578.528C1121.05 618.331 1108.17 660.281 1086.84 694.024C1050.97 750.754 998.213 789.797 932.428 804.572C903.555 811.056 876.57 810.481 847.252 810.423Q815.176 810.511 783.101 810.256L640.587 810.036Q594.777 809.917 548.968 810.325C519.872 810.757 486.546 812.484 457.962 808.472C423.085 803.578 387.273 791.389 357.495 772.464C325.623 752.21 302.772 730.132 281.263 699.134C288.225 698.639 295.171 698.16 302.149 697.967L303.135 698.001C323.504 697.397 377.348 691.739 394.712 681.471C389.433 680.328 384.156 678.8 379.272 676.468C367.234 670.718 358.448 660.094 354.032 647.58Q352.997 644.65 352.355 641.611Q351.712 638.571 351.473 635.473C350.564 624.446 351.312 612.967 351.261 601.892C351.207 590.025 350.152 577.215 351.606 565.439Q351.825 563.672 352.191 561.93Q352.557 560.188 353.067 558.482Q353.577 556.777 354.227 555.12Q354.878 553.463 355.665 551.866C359.819 543.501 369.243 533.793 378.448 531.229C390.95 527.747 422.47 529.867 437.221 529.878L628.713 529.849C640.085 529.799 684.766 531.21 692.354 528.489C692.535 528.424 692.713 528.349 692.893 528.278C699.243 524.484 706.576 521.806 713.373 518.9C728.922 512.253 745.737 505.654 760.094 496.688Q762.469 496.791 764.845 496.848C784.554 497.307 804.377 496.78 824.095 496.744L906.327 497.13L958.894 496.95C969.826 496.931 981.791 497.869 992.55 496.105C998.895 495.065 1004.42 491.824 1009 487.377C1012.44 484.038 1016.44 479.315 1017.95 474.711C1021.74 463.146 1019.87 446.245 1019.94 433.995L1020.35 393.023C1027.95 383.262 1058 345.458 1060.26 335.055L1060.82 333.4C1064.25 330.165 1069.6 317.503 1069.78 312.691Z"/>
	<path fill="#696EFF" d="M692.893 528.278C693.07 528.312 693.247 528.349 693.425 528.38C700.883 529.673 709.832 528.785 717.443 528.796L768.069 528.749L929.884 528.48C946.466 528.372 978.881 526.121 993.672 529.539C1001.13 531.263 1008.38 536.522 1012.87 542.665Q1014.2 544.494 1015.3 546.466Q1016.4 548.439 1017.26 550.528Q1018.12 552.617 1018.73 554.793Q1019.33 556.969 1019.68 559.201C1021.37 569.718 1020.17 583.963 1020.18 594.821C1020.19 609.596 1021.71 632.095 1019.35 645.966C1017.5 656.83 1011.45 667.391 1002.37 673.746C996.324 677.975 990.07 680.359 982.718 681.05C967.227 682.506 950.63 681.286 935.035 681.294L840.166 681.427L538.594 681.33L442.975 681.417C427.021 681.42 410.595 680.6 394.712 681.471C389.433 680.328 384.156 678.8 379.272 676.468C367.234 670.718 358.448 660.094 354.032 647.58Q352.997 644.65 352.355 641.611Q351.712 638.571 351.473 635.473C350.564 624.446 351.312 612.967 351.261 601.892C351.207 590.025 350.152 577.215 351.606 565.439Q351.825 563.672 352.191 561.93Q352.557 560.188 353.067 558.482Q353.577 556.777 354.227 555.12Q354.878 553.463 355.665 551.866C359.819 543.501 369.243 533.793 378.448 531.229C390.95 527.747 422.47 529.867 437.221 529.878L628.713 529.849C640.085 529.799 684.766 531.21 692.354 528.489C692.535 528.424 692.713 528.349 692.893 528.278Z"/>
	<path fill="#FF5400" d="M634.341 650.19L633.476 650.215C617.834 650.642 602.096 650.274 586.445 650.252L499.169 650.157L453.531 650.139C445.234 650.13 436.105 650.861 427.925 649.486C419.883 648.134 411.278 643.316 405.441 637.71Q404.616 636.904 403.833 636.058Q403.049 635.212 402.309 634.328Q401.568 633.445 400.872 632.525Q400.176 631.606 399.526 630.653Q398.877 629.7 398.275 628.717Q397.674 627.733 397.122 626.72Q396.57 625.708 396.068 624.669Q395.567 623.631 395.118 622.569Q394.669 621.507 394.273 620.424Q393.877 619.341 393.535 618.239Q393.193 617.138 392.906 616.021Q392.62 614.904 392.389 613.774Q392.157 612.644 391.983 611.504Q391.808 610.365 391.69 609.218Q391.571 608.07 391.51 606.919Q391.449 605.767 391.445 604.614C391.391 592.474 395.603 581.582 404.193 572.948C410.338 566.772 418.003 562.414 426.614 560.917C436.661 559.171 447.496 559.896 457.67 559.898L504.735 559.881L680.456 559.96L859.697 559.949L910.004 559.925C920.221 559.925 931.036 559.23 941.134 560.903C950.188 562.402 958.01 566.6 964.497 573.098C973.276 581.892 977.88 593.203 977.853 605.611C977.827 617.742 972.593 628.73 964.024 637.201C957.481 643.67 949.562 648.22 940.457 649.744C928.832 651.689 915.966 650.714 904.165 650.718L841.129 650.649C773.631 650.535 705.995 651.34 638.511 650.346Q636.424 650.312 634.341 650.19Z"/>
</svg>
